# xmcd CD database file
#
# Track frame offsets:
#	150
#	10615
#	23696
#	32878
#	44553
#	66427
#	93182
#	119673
#	132320
#	155556
#	180139
#	211388
#	228696
#	242247
#	251004
#	263576
#	276545
#
# Disc length: 3882 seconds
#
# Revision: 0
# Processed by: cddbd v1.5.2PL0 Copyright (c) Steve Scherf et al.
# Submitted via: CDex 1.51
#
DISCID=f20f2811
DTITLE=Various Artist - Jazz Number Ones
DYEAR=2007
DGENRE=Jazz
TTITLE0=What A Wonderful World [Louis Armstrong]
TTITLE1=Mr. Paganini (You'll Have To Swing It) [Ella Fitzgerald]
TTITLE2=Desafinado [Stan Getz and Charlie Byrd]
TTITLE3=I Put A Spell On You [Nina Simone]
TTITLE4=Night Train [Oscar Peterson Trio]
TTITLE5=Walk On The Wild Side [Jimmy Smith]
TTITLE6=The "In" Crowd [Ramsey Lewis Trio]
TTITLE7=The Girl From Ipanema - single version [Astrud Gilberto, Stan Getz]
TTITLE8=Killer Joe [Quincy Jones]
TTITLE9=Put It Where You Want It [The Crusaders]
TTITLE10=Hard Work [John Handy]
TTITLE11=Wade In The Water [Ramsey Lewis]
TTITLE12=At Last [Etta James]
TTITLE13=Misty - single version [Richard "Groove" Holmes]
TTITLE14=My Foolish Heart [Gene Ammons]
TTITLE15=Baby Got Lost [Dinah Washington]
TTITLE16=Lover Man [Billie Holiday]
EXTD=YEAR: 2007
EXTT0=
EXTT1=
EXTT2=
EXTT3=
EXTT4=
EXTT5=
EXTT6=
EXTT7=
EXTT8=
EXTT9=
EXTT10=
EXTT11=
EXTT12=
EXTT13=
EXTT14=
EXTT15=
EXTT16=
PLAYORDER=
